<svg width="16" height="19" viewBox="0 0 16 19" fill="none" xmlns="http://www.w3.org/2000/svg">
<path d="M7.95547 1.34843C8.079 0.791242 8.8733 0.791239 8.99684 1.34842L10.2996 7.22389C10.3484 7.44398 10.5303 7.60962 10.754 7.63764L15.1733 8.19132C15.7591 8.2647 15.8093 9.09437 15.2367 9.23786L10.7141 10.3711C10.5112 10.4219 10.3568 10.5866 10.3191 10.7924L9 18V18C8.88102 18.4542 8.22567 18.4219 8.15206 17.9581L8 17L6.64406 10.7873C6.59977 10.5844 6.44169 10.4256 6.23894 10.3805L1.12578 9.24165C0.537716 9.11067 0.583927 8.2577 1.1827 8.19102L6.19233 7.63313C6.41905 7.60788 6.60461 7.44123 6.65399 7.21851L7.95547 1.34843Z" fill="black"/>
</svg>
