<svg width="19" height="21" viewBox="0 0 19 21" fill="none" xmlns="http://www.w3.org/2000/svg">
<path d="M9.28089 0.88066C9.32722 0.671716 9.62508 0.671714 9.67141 0.880658L11.3504 8.45328C11.3687 8.53581 11.437 8.59792 11.5208 8.60843L17.94 9.41265C18.1597 9.44017 18.1785 9.7513 17.9638 9.8051L11.5042 11.4237C11.429 11.4425 11.3714 11.5031 11.3565 11.5792L10 18.5L9.66851 20.082C9.62425 20.2932 9.32305 20.2943 9.27731 20.0834L8.5 16.5L7.5954 11.5848C7.58087 11.5058 7.52054 11.4432 7.44218 11.4258L0.172168 9.80653C-0.0483568 9.75741 -0.0310274 9.43755 0.193513 9.41254L7.42927 8.60674C7.51429 8.59727 7.58387 8.53478 7.60239 8.45126L9.28089 0.88066Z" fill="white"/>
</svg>
